<?xml version="1.0" encoding="UTF-8"?>
<svg version="1.1" xmlns="http://www.w3.org/2000/svg" width="96" height="96">
<path d="M0 0 C0.66 0 1.32 0 2 0 C8.1327238 12.219191 14.26117474 24.4405143 20.38411713 36.66460991 C23.22710672 42.34013358 26.0715859 48.01490053 28.91943359 53.68798828 C31.66558749 59.15863074 34.40787508 64.63119485 37.14744568 70.10513687 C38.19548383 72.19750605 39.24493431 74.28916842 40.29579163 76.38012314 C41.76274259 79.2995942 43.22473815 82.22149486 44.68554688 85.14404297 C45.12503159 86.01582184 45.5645163 86.88760071 46.01731873 87.78579712 C46.41278397 88.57947693 46.80824921 89.37315674 47.21569824 90.19088745 C47.5622924 90.88223219 47.90888657 91.57357693 48.26598358 92.28587151 C49 94 49 94 49 96 C40.09 96 31.18 96 22 96 C16.70771437 86.02026137 11.45635493 76.02643338 6.375 65.9375 C5.71878662 64.64440918 5.71878662 64.64440918 5.04931641 63.32519531 C4.64890137 62.5256543 4.24848633 61.72611328 3.8359375 60.90234375 C3.48063965 60.19585693 3.1253418 59.48937012 2.75927734 58.76147461 C2 57 2 57 2 55 C1.34 55 0.68 55 0 55 C-0.24999756 55.8252417 -0.49999512 56.6504834 -0.75756836 57.50073242 C-2.18029688 61.50780018 -3.96464516 65.19813843 -5.87890625 68.98828125 C-6.25103745 69.73208542 -6.62316864 70.47588959 -7.00657654 71.24223328 C-7.78886255 72.80379892 -8.57308082 74.36439794 -9.35913086 75.92407227 C-10.56634052 78.3201226 -11.76702774 80.71935736 -12.96679688 83.11914062 C-13.72878781 84.63821094 -14.4911446 86.15709779 -15.25390625 87.67578125 C-15.6143251 88.39550613 -15.97474396 89.11523102 -16.34608459 89.85676575 C-18.88390512 94.88390512 -18.88390512 94.88390512 -20 96 C-21.99964982 96.08758003 -24.0023611 96.10696576 -26.00390625 96.09765625 C-27.82631836 96.09282227 -27.82631836 96.09282227 -29.68554688 96.08789062 C-30.96494141 96.07951172 -32.24433594 96.07113281 -33.5625 96.0625 C-34.84576172 96.05798828 -36.12902344 96.05347656 -37.45117188 96.04882812 C-40.63416022 96.03699545 -43.81705762 96.02051068 -47 96 C-45.42272886 90.70853747 -43.11886104 85.96761117 -40.64208984 81.05712891 C-40.20288712 80.1784314 -39.76368439 79.29973389 -39.31117249 78.39440918 C-37.8648804 75.50321344 -36.41294901 72.61488948 -34.9609375 69.7265625 C-33.95453562 67.71749058 -32.94848786 65.70824122 -31.94277954 63.69882202 C-29.29951427 58.41991438 -26.65145216 53.1434273 -24.00238037 47.86743164 C-21.2981621 42.47948238 -18.59849225 37.08925532 -15.8984375 31.69921875 C-10.60340479 21.13057957 -5.30330119 10.56449223 0 0 Z " fill="#B5ACAE" transform="translate(47,0)"/>
</svg>
